<svg width="24" height="24" viewBox="0 0 24 24" fill="none" xmlns="http://www.w3.org/2000/svg">
<path d="M13.1862 19.6187L13.1863 19.6186L13.1852 19.6169C12.7452 18.9129 12.5004 18.0813 12.5004 17.1999C12.5004 14.6051 14.6056 12.4999 17.2004 12.4999C19.7952 12.4999 21.9004 14.6051 21.9004 17.1999C21.9004 18.0805 21.646 18.9126 21.2151 19.6178L21.2143 19.6191C20.4117 20.9796 18.9139 21.8999 17.2004 21.8999C15.4872 21.8999 13.999 20.9799 13.1862 19.6187ZM19.6482 16.6434L19.6486 16.643C19.9891 16.3253 20.0107 15.7828 19.6946 15.4329L19.6946 15.4329L19.6935 15.4317C19.3764 15.0919 18.8332 15.0685 18.4922 15.3867C18.4922 15.3868 18.4922 15.3868 18.4922 15.3868L16.533 17.2011L15.9311 16.5992C15.602 16.2702 15.0587 16.2702 14.7297 16.5992C14.4006 16.9283 14.4006 17.4716 14.7297 17.8006L15.9097 18.9806C16.0794 19.1504 16.2953 19.2299 16.5104 19.2299C16.7147 19.2299 16.9292 19.151 17.0883 19.0033C17.0884 19.0032 17.0884 19.0032 17.0884 19.0032L19.6482 16.6434Z" stroke="#EC5353" stroke-width="0.2"/>
<path d="M22 8.69009C22 9.88009 21.81 10.9801 21.48 12.0001C21.27 12.6701 21 13.3101 20.68 13.9001C19.8 12.9701 18.57 12.4001 17.2 12.4001C14.55 12.4001 12.4 14.5501 12.4 17.2001C12.4 18.4301 12.87 19.5501 13.63 20.4001C13.26 20.5701 12.92 20.7101 12.62 20.8101C12.28 20.9301 11.72 20.9301 11.38 20.8101C8.97 19.9901 4.1 17.0001 2.52 12.0001C2.19 10.9801 2 9.88009 2 8.69009C2 5.60009 4.49 3.1001 7.56 3.1001C9.37 3.1001 10.99 3.98008 12 5.33008C13.01 3.98008 14.63 3.1001 16.44 3.1001C19.51 3.1001 22 5.60009 22 8.69009Z" fill="#EC5353"/>
</svg>
